<?xml version="1.0" encoding="UTF-8"?>
<svg version="1.1" xmlns="http://www.w3.org/2000/svg" width="800" height="534">
<path d="M0 0 C264 0 528 0 800 0 C800 176.22 800 352.44 800 534 C536 534 272 534 0 534 C0 357.78 0 181.56 0 0 Z " fill="#DA1419" transform="translate(0,0)"/>
<path d="M0 0 C264 0 528 0 800 0 C800 78.54 800 157.08 800 238 C536 238 272 238 0 238 C0 159.46 0 80.92 0 0 Z " fill="#DA1419" transform="translate(0,296)"/>
<path d="M0 0 C264 0 528 0 800 0 C800 19.8 800 39.6 800 60 C536 60 272 60 0 60 C0 40.2 0 20.4 0 0 Z " fill="#FBDC09" transform="translate(0,474)"/>
<path d="M0 0 C264 0 528 0 800 0 C800 19.47 800 38.94 800 59 C536 59 272 59 0 59 C0 39.53 0 20.06 0 0 Z " fill="#DA121A" transform="translate(0,415)"/>
<path d="M0 0 C264 0 528 0 800 0 C800 19.47 800 38.94 800 59 C536 59 272 59 0 59 C0 39.53 0 20.06 0 0 Z " fill="#FBDC09" transform="translate(0,356)"/>
<path d="M0 0 C264 0 528 0 800 0 C800 19.47 800 38.94 800 59 C536 59 272 59 0 59 C0 39.53 0 20.06 0 0 Z " fill="#FBDC09" transform="translate(0,237)"/>
<path d="M0 0 C264 0 528 0 800 0 C800 19.47 800 38.94 800 59 C536 59 272 59 0 59 C0 39.53 0 20.06 0 0 Z " fill="#DA121A" transform="translate(0,178)"/>
<path d="M0 0 C264 0 528 0 800 0 C800 19.47 800 38.94 800 59 C536 59 272 59 0 59 C0 39.53 0 20.06 0 0 Z " fill="#FBDC09" transform="translate(0,119)"/>
<path d="M0 0 C264 0 528 0 800 0 C800 19.47 800 38.94 800 59 C536 59 272 59 0 59 C0 39.53 0 20.06 0 0 Z " fill="#FCDD09" transform="translate(0,0)"/>
</svg>
